<?xml version="1.0" encoding="utf-8"?>
<!-- Generator: Adobe Illustrator 16.0.0, SVG Export Plug-In . SVG Version: 6.00 Build 0)  -->
<!DOCTYPE svg PUBLIC "-//W3C//DTD SVG 1.1//EN" "http://www.w3.org/Graphics/SVG/1.1/DTD/svg11.dtd">
<svg version="1.1" id="Layer_1" xmlns="http://www.w3.org/2000/svg" xmlns:xlink="http://www.w3.org/1999/xlink" x="0px" y="0px"
	 width="246.851px" height="246.854px" viewBox="0 0 246.851 246.854" enable-background="new 0 0 246.851 246.854"
	 xml:space="preserve">
<g>
	<path d="M123.425,246.854C55.369,246.854,0,191.484,0,123.427S55.369,0,123.425,0c68.058,0,123.426,55.369,123.426,123.427
		S191.483,246.854,123.425,246.854z M123.425,18.54C65.591,18.54,18.54,65.592,18.54,123.427
		c0,57.835,47.052,104.888,104.886,104.888c57.835,0,104.887-47.052,104.887-104.888C228.312,65.592,181.26,18.54,123.425,18.54z"/>
	<path d="M123.425,207.801c-46.523,0-84.373-37.851-84.373-84.374s37.85-84.373,84.373-84.373s84.374,37.85,84.374,84.373
		S169.949,207.801,123.425,207.801z M123.425,57.593c-36.3,0-65.833,29.533-65.833,65.833c0,36.301,29.533,65.834,65.833,65.834
		c36.301,0,65.834-29.533,65.834-65.834C189.259,87.126,159.726,57.593,123.425,57.593z"/>
	<path d="M123.425,168.325c-24.756,0-44.896-20.141-44.896-44.898c0-24.756,20.141-44.897,44.896-44.897
		s44.897,20.141,44.897,44.897C168.323,148.184,148.181,168.325,123.425,168.325z M123.425,97.069
		c-14.534,0-26.357,11.824-26.357,26.357s11.823,26.358,26.357,26.358c14.533,0,26.357-11.825,26.357-26.358
		S137.958,97.069,123.425,97.069z"/>
	<circle cx="123.426" cy="123.427" r="9.717"/>
</g>
</svg>
