<?xml version="1.0" encoding="utf-8"?>
<!-- Generator: Adobe Illustrator 16.0.0, SVG Export Plug-In . SVG Version: 6.00 Build 0)  -->
<!DOCTYPE svg PUBLIC "-//W3C//DTD SVG 1.1//EN" "http://www.w3.org/Graphics/SVG/1.1/DTD/svg11.dtd">
<svg version="1.1" id="Layer_1" xmlns="http://www.w3.org/2000/svg" xmlns:xlink="http://www.w3.org/1999/xlink" x="0px" y="0px"
	 width="1400px" height="980px" viewBox="0 0 1400 980" enable-background="new 0 0 1400 980" xml:space="preserve">
<g>
	<g>
		<path d="M937.852,285.903c-34.802-34.801-34.802-91.425,0-126.226c34.8-34.801,91.425-34.801,126.225,0
			c34.802,34.801,34.802,91.425,0,126.225C1029.276,320.703,972.651,320.703,937.852,285.903z M1050.968,172.787
			c-27.572-27.572-72.437-27.572-100.007-0.001c-27.572,27.572-27.572,72.435,0,100.007c27.57,27.572,72.435,27.572,100.007,0
			C1078.538,245.221,1078.538,200.358,1050.968,172.787z"/>
		<path d="M944.259,203.379c-1.296-1.295-1.749-3.294-0.992-5.085c3.142-7.421,7.642-14.092,13.376-19.826
			c24.438-24.439,64.204-24.439,88.645,0.001c3.146,3.147,5.958,6.625,8.354,10.338c1.389,2.15,0.77,5.02-1.382,6.407
			c-2.149,1.388-5.015,0.769-6.407-1.381c-2.041-3.162-4.436-6.126-7.121-8.81c-20.824-20.825-54.709-20.825-75.534,0
			c-4.886,4.887-8.719,10.567-11.394,16.884c-0.997,2.357-3.717,3.46-6.074,2.462C945.162,204.128,944.668,203.789,944.259,203.379z
			"/>
		<path d="M866.956,356.799c-3.62-3.621-3.621-9.491,0-13.11l70.896-70.896c3.619-3.619,9.49-3.619,13.109,0
			c3.619,3.62,3.619,9.49,0,13.11l-70.896,70.896C876.444,360.42,870.575,360.417,866.956,356.799z"/>
	</g>
	<g>
		<path d="M682.141,377.649c-68.057,0-123.426-55.369-123.426-123.427s55.369-123.427,123.426-123.427
			c68.057,0,123.425,55.369,123.425,123.427S750.198,377.649,682.141,377.649z M682.141,149.335
			c-57.834,0-104.886,47.052-104.886,104.887c0,57.835,47.052,104.887,104.886,104.887s104.886-47.052,104.886-104.887
			C787.027,196.388,739.976,149.335,682.141,149.335z"/>
		<path d="M682.141,338.597c-46.524,0-84.373-37.851-84.373-84.374s37.849-84.373,84.373-84.373
			c46.523,0,84.374,37.85,84.374,84.373S728.664,338.597,682.141,338.597z M682.141,188.389c-36.3,0-65.833,29.533-65.833,65.833
			c0,36.301,29.533,65.834,65.833,65.834s65.833-29.533,65.833-65.834C747.975,217.922,718.441,188.389,682.141,188.389z"/>
		<path d="M682.141,299.121c-24.757,0-44.897-20.141-44.897-44.898c0-24.756,20.14-44.897,44.897-44.897
			c24.755,0,44.897,20.141,44.897,44.897C727.038,278.979,706.896,299.121,682.141,299.121z M682.141,227.865
			c-14.535,0-26.357,11.824-26.357,26.357s11.823,26.358,26.357,26.358c14.533,0,26.357-11.825,26.357-26.358
			S696.674,227.865,682.141,227.865z"/>
		<circle cx="682.141" cy="254.223" r="9.717"/>
	</g>
	<g>
		<path d="M162.851,560.948c-14.084,0-23.082-19.787-26.745-58.811c-0.48-5.099,3.264-9.617,8.363-10.098
			c5.098-0.469,9.615,3.269,10.095,8.363c2.048,21.823,5.745,33.67,8.314,39.091c4.131-8.825,9.55-32.209,9.55-67.844
			c0-35.68-5.433-59.078-9.567-67.877c-3.049,6.453-7.218,21.338-8.906,46.727c-0.338,5.109-4.75,8.957-9.862,8.636
			c-5.109-0.34-8.975-4.756-8.636-9.863c2.028-30.529,8.424-66.922,27.393-66.922c26.763,0,28.117,74.388,28.117,89.299
			C190.968,486.562,189.614,560.948,162.851,560.948z"/>
		<path d="M381.925,523.252h-92.388c-5.12,0-9.27-4.15-9.27-9.27v-84.665c0-5.12,4.15-9.27,9.27-9.27h92.388
			c11.757,0,21.32,9.565,21.32,21.321v60.563C403.246,513.687,393.683,523.252,381.925,523.252z M298.807,504.712h83.119
			c1.534,0,2.781-1.247,2.781-2.78v-60.563c0-1.534-1.247-2.781-2.781-2.781h-83.119V504.712z"/>
		<path d="M289.537,438.587c-43.183,0-126.904-36.921-130.447-38.493c-4.678-2.077-6.79-7.552-4.713-12.232
			c2.077-4.678,7.55-6.788,12.232-4.715c0.831,0.37,83.662,36.9,122.928,36.9c5.118,0,9.27,4.15,9.27,9.27
			S294.655,438.587,289.537,438.587z"/>
		<path d="M162.856,560.95c-3.556,0-6.945-2.055-8.479-5.513c-2.077-4.681,0.035-10.155,4.713-12.232
			c3.543-1.571,87.264-38.493,130.447-38.493c5.118,0,9.27,4.15,9.27,9.271c0,5.119-4.151,9.27-9.27,9.27
			c-39.295,0-122.097,36.53-122.928,36.899C165.387,560.693,164.111,560.95,162.856,560.95z"/>
		<path d="M318.79,632.325h-40.17c-3.074,0-5.951-1.524-7.675-4.071c-1.725-2.548-2.075-5.783-0.932-8.638l24.255-60.687
			c-2.129-1.698-3.495-4.314-3.495-7.251v-37.696c0-5.12,4.15-9.271,9.27-9.271h55.619c5.118,0,9.27,4.15,9.27,9.271v37.696
			c0,5.12-4.151,9.27-9.27,9.27h-2.066l-26.198,65.548C325.99,630.018,322.581,632.325,318.79,632.325z M292.309,613.786h20.203
			l26.198-65.548c1.292-3.231,4.269-5.442,7.682-5.782v-19.204h-37.08v19.412c2.224,0.534,4.201,1.881,5.511,3.816
			c1.726,2.548,2.075,5.783,0.933,8.638L292.309,613.786z"/>
		<path d="M177.682,526.009c-28.028,0-50.832-22.803-50.832-50.832c0-28.028,22.803-50.83,50.832-50.83
			c5.119,0,9.27,4.149,9.27,9.27s-4.151,9.27-9.27,9.27c-17.806,0-32.292,14.486-32.292,32.29c0,17.806,14.486,32.292,32.292,32.292
			c5.119,0,9.27,4.149,9.27,9.27S182.801,526.009,177.682,526.009z"/>
	</g>
	<g>
		<path d="M389.325,354.17c-2.587,0-5.098-1.086-6.88-3.06l-12.424-13.76c-4.356,0.315-8.48,0.315-12.834,0l-12.422,13.76
			c-2.315,2.563-5.864,3.628-9.205,2.763c-9.959-2.578-19.555-6.561-28.522-11.848c-2.975-1.749-4.728-5.012-4.552-8.459
			l0.945-18.492c-3.226-2.807-6.257-5.836-9.065-9.064l-18.494,0.945c-3.444,0.177-6.707-1.578-8.459-4.552
			c-5.281-8.962-9.268-18.559-11.85-28.522c-0.865-3.343,0.199-6.891,2.763-9.206l13.76-12.422c-0.157-2.179-0.237-4.325-0.237-6.42
			c0-2.094,0.08-4.239,0.237-6.417l-13.76-12.422c-2.563-2.314-3.628-5.861-2.763-9.204c2.576-9.956,6.563-19.551,11.848-28.521
			c1.752-2.975,5.035-4.729,8.458-4.553l18.496,0.945c2.806-3.227,5.837-6.258,9.065-9.065l-0.945-18.495
			c-0.176-3.447,1.579-6.707,4.552-8.459c8.971-5.284,18.566-9.271,28.522-11.847c3.342-0.868,6.889,0.197,9.203,2.762
			l12.424,13.761c4.356-0.315,8.48-0.315,12.836,0l12.422-13.761c2.314-2.565,5.862-3.626,9.205-2.762
			c9.958,2.577,19.554,6.564,28.523,11.849c2.975,1.751,4.727,5.011,4.551,8.458l-0.945,18.495c3.228,2.807,6.257,5.838,9.063,9.064
			l18.496-0.945c3.445-0.178,6.706,1.579,8.458,4.552c5.283,8.966,9.27,18.563,11.848,28.522c0.866,3.342-0.199,6.889-2.763,9.204
			l-13.76,12.423c0.158,2.177,0.237,4.323,0.237,6.417s-0.08,4.24-0.237,6.418l13.76,12.423c2.564,2.313,3.628,5.86,2.763,9.204
			c-2.578,9.958-6.564,19.556-11.85,28.524c-1.75,2.973-5.019,4.725-8.458,4.552l-18.494-0.945
			c-2.807,3.226-5.837,6.254-9.063,9.062l0.945,18.495c0.176,3.447-1.577,6.706-4.551,8.459c-8.968,5.283-18.565,9.27-28.525,11.848
			C390.878,354.073,390.098,354.17,389.325,354.17z M321.297,328.722c4.394,2.252,8.94,4.143,13.599,5.656l11.66-12.915
			c2.026-2.243,5.017-3.356,8.015-2.989c6.295,0.777,11.77,0.777,18.069,0c2.997-0.375,5.989,0.748,8.013,2.989l11.662,12.915
			c4.658-1.513,9.205-3.403,13.599-5.656l-0.887-17.359c-0.154-3.018,1.173-5.92,3.556-7.78c4.76-3.717,9.058-8.014,12.769-12.771
			c1.859-2.382,4.767-3.714,7.782-3.555l17.359,0.887c2.252-4.395,4.143-8.941,5.656-13.6l-12.916-11.66
			c-2.243-2.025-3.358-5.016-2.989-8.014c0.389-3.149,0.578-6.105,0.578-9.036s-0.188-5.885-0.578-9.033
			c-0.369-2.999,0.746-5.99,2.989-8.015l12.916-11.661c-1.514-4.658-3.404-9.204-5.656-13.598l-17.359,0.887
			c-2.997,0.153-5.92-1.173-7.78-3.556c-3.715-4.76-8.011-9.057-12.771-12.771c-2.383-1.859-3.71-4.762-3.556-7.78l0.887-17.359
			c-4.394-2.252-8.94-4.143-13.597-5.657l-11.662,12.917c-2.024,2.243-5.019,3.364-8.013,2.988c-3.15-0.388-6.107-0.577-9.038-0.577
			c-2.89,0-5.929,0.194-9.033,0.577c-2.998,0.375-5.991-0.745-8.015-2.988l-11.662-12.917c-4.656,1.514-9.203,3.405-13.597,5.657
			l0.887,17.358c0.154,3.018-1.173,5.922-3.556,7.781c-4.762,3.714-9.058,8.011-12.773,12.772c-1.857,2.383-4.75,3.709-7.78,3.556
			l-17.359-0.887c-2.252,4.395-4.143,8.941-5.656,13.598l12.917,11.661c2.243,2.025,3.358,5.016,2.989,8.015
			c-0.384,3.104-0.577,6.144-0.577,9.033c0,2.93,0.188,5.887,0.577,9.037c0.37,2.999-0.746,5.989-2.989,8.014l-12.917,11.66
			c1.516,4.66,3.406,9.206,5.656,13.599l17.359-0.887c3.013-0.159,5.922,1.173,7.78,3.555c3.717,4.763,8.014,9.06,12.771,12.77
			c2.384,1.859,3.711,4.763,3.558,7.782L321.297,328.722z M363.603,280.786c-19.271,0-34.95-15.679-34.95-34.951
			s15.679-34.95,34.95-34.95c19.273,0,34.952,15.678,34.952,34.95S382.876,280.786,363.603,280.786z M363.603,229.424
			c-9.049,0-16.411,7.361-16.411,16.41s7.362,16.412,16.411,16.412s16.412-7.363,16.412-16.412S372.652,229.424,363.603,229.424z"/>
	</g>
	<g>
		<path d="M535.367,530.745c-1.957,0-3.88-0.619-5.479-1.792c-1.997-1.463-3.326-3.664-3.69-6.112l-15.592-104.894
			c-0.371-1.003-0.574-2.085-0.574-3.215c0-0.181,0.005-0.362,0.017-0.54l-3.687-24.8H455.03c-5.12,0-9.27-4.149-9.27-9.27
			s4.15-9.27,9.27-9.27h59.327c4.593,0,8.493,3.364,9.168,7.908l3.968,26.701h185.854c5.12,0,9.271,4.15,9.271,9.27v78.319
			c0,4.555-3.31,8.434-7.808,9.154L536.83,530.63C536.343,530.709,535.854,530.745,535.367,530.745z M530.249,424.002l12.911,86.843
			l160.917-25.702v-61.141H530.249z"/>
		<path d="M700.384,576.479H517.146c-3.074,0-5.948-1.524-7.673-4.066c-1.726-2.545-2.077-5.779-0.94-8.632l18.223-45.733
			c1.894-4.759,7.289-7.079,12.042-5.182c4.756,1.894,7.075,7.285,5.182,12.043l-13.163,33.031h169.566c5.12,0,9.27,4.149,9.27,9.27
			S705.504,576.479,700.384,576.479z"/>
		<path d="M570.594,623.447c-17.037,0-30.898-13.861-30.898-30.902c0-17.037,13.861-30.897,30.898-30.897
			c17.039,0,30.9,13.86,30.9,30.897C601.494,609.586,587.633,623.447,570.594,623.447z M570.594,580.187
			c-6.815,0-12.358,5.544-12.358,12.358s5.543,12.362,12.358,12.362s12.36-5.548,12.36-12.362S577.409,580.187,570.594,580.187z"/>
		<path d="M657.609,623.447c-17.037,0-30.898-13.861-30.898-30.902c0-17.037,13.861-30.897,30.898-30.897
			c17.039,0,30.9,13.86,30.9,30.897C688.509,609.586,674.647,623.447,657.609,623.447z M657.609,580.187
			c-6.815,0-12.358,5.544-12.358,12.358s5.543,12.362,12.358,12.362s12.36-5.548,12.36-12.362S664.424,580.187,657.609,580.187z"/>
	</g>
	<g>
		<path d="M972.504,599.778c-2.006,0-3.999-0.65-5.65-1.921l-57.895-44.499l-57.896,44.499c-2.8,2.156-6.578,2.525-9.746,0.967
			c-3.167-1.561-5.173-4.785-5.173-8.316V403.791c0-5.12,4.149-9.27,9.27-9.27h127.089c5.12,0,9.27,4.149,9.27,9.27v186.717
			c0,3.531-2.006,6.756-5.173,8.316C975.302,599.463,973.898,599.778,972.504,599.778z M854.684,413.061v158.63l48.627-37.374
			c3.329-2.56,7.966-2.563,11.298,0l48.624,37.374v-158.63H854.684z"/>
		<path d="M927.305,507.338c-0.736,0-1.477-0.176-2.156-0.533l-16.191-8.513l-16.19,8.513c-1.562,0.822-3.455,0.683-4.882-0.353
			c-1.427-1.037-2.142-2.794-1.843-4.533l3.093-18.029l-13.1-12.77c-1.264-1.231-1.718-3.072-1.173-4.751
			c0.545-1.678,1.995-2.9,3.742-3.154l18.102-2.63l8.097-16.403c0.78-1.583,2.392-2.583,4.154-2.583
			c1.766,0,3.377,1.001,4.157,2.583l8.097,16.403l18.102,2.63c1.747,0.253,3.197,1.476,3.742,3.154
			c0.545,1.679,0.091,3.52-1.173,4.751l-13.1,12.77l2.993,17.453c0.132,0.431,0.203,0.888,0.203,1.359
			c0,2.561-2.075,4.636-4.636,4.636C927.332,507.338,927.319,507.338,927.305,507.338z M908.957,488.421
			c0.741,0,1.483,0.177,2.158,0.532l10.036,5.276l-1.917-11.175c-0.258-1.504,0.24-3.038,1.332-4.103l8.12-7.914l-11.22-1.631
			c-1.51-0.219-2.815-1.166-3.49-2.535l-5.02-10.167l-5.017,10.167c-0.675,1.369-1.98,2.316-3.49,2.535l-11.22,1.631l8.118,7.914
			c1.094,1.065,1.592,2.598,1.332,4.103l-1.915,11.175l10.035-5.276C907.477,488.599,908.217,488.421,908.957,488.421z"/>
	</g>
	<g>
		<path d="M473.059,602.842l-66.724,23.687l18.12,5.917l-93.759,83.73l-11.618-43.062c-0.934-3.462-3.603-6.188-7.044-7.196
			c-3.437-1.007-7.159-0.152-9.815,2.258L196.763,763.94c-4.209,3.821-4.522,10.332-0.701,14.54
			c2.031,2.237,4.823,3.375,7.624,3.375c2.468,0,4.946-0.884,6.916-2.675l92.986-84.439l11.576,42.91
			c0.931,3.447,3.582,6.167,7.003,7.187c3.422,1.014,7.129,0.189,9.791-2.189l106.209-94.847l3.842,18.675L473.059,602.842z"/>
		<path d="M408.663,682.85v145.766h-34.441V713.608l-20.587,18.384v96.623h-34.441v-77.974c-5.059-1.902-8.872-6.028-10.293-11.299
			l-8.812-32.66l-1.483,1.348v120.585h-34.443v-89.307l-20.587,18.695v80.905c0,5.686,4.609,10.295,10.294,10.295h165.087
			c5.685,0,10.292-4.609,10.292-10.295V664.466L408.663,682.85z"/>
		<path d="M466.458,849.204H206.37c-5.685,0-10.294-4.609-10.294-10.295c0-5.685,4.609-10.294,10.294-10.294h260.088
			c5.685,0,10.295,4.609,10.295,10.294C476.752,844.595,472.143,849.204,466.458,849.204z"/>
	</g>
	<g>
		<path d="M690.133,775.341c-29.276,0-53.095-23.819-53.095-53.097s23.819-53.097,53.095-53.097
			c29.277,0,53.097,23.819,53.097,53.097S719.41,775.341,690.133,775.341z M690.133,687.688c-19.054,0-34.555,15.501-34.555,34.557
			s15.501,34.558,34.555,34.558c19.056,0,34.557-15.502,34.557-34.558S709.188,687.688,690.133,687.688z"/>
		<path d="M751.563,847.398H630.151c-5.12,0-9.27-4.149-9.27-9.27c0-38.585,31.391-69.978,69.976-69.978
			c38.583,0,69.976,31.393,69.976,69.978C760.833,843.249,756.682,847.398,751.563,847.398z M640.257,828.859h101.2
			c-4.378-23.953-25.403-42.168-50.6-42.168C665.658,786.691,644.635,804.906,640.257,828.859z"/>
		<path d="M603.729,745.46c-25.534,0-46.306-20.771-46.306-46.305c0-25.532,20.772-46.304,46.306-46.304
			c25.531,0,46.303,20.771,46.303,46.304C650.032,724.688,629.26,745.46,603.729,745.46z M603.729,671.391
			c-15.312,0-27.766,12.455-27.766,27.765s12.455,27.766,27.766,27.766c15.308,0,27.764-12.456,27.764-27.766
			S619.036,671.391,603.729,671.391z"/>
		<path d="M646.134,806.353H553.04c-5.12,0-9.27-4.149-9.27-9.27c0-33.398,27.17-60.57,60.568-60.57
			c30.062,0,55.231,21.53,59.846,51.195c0.788,5.059-2.676,9.799-7.734,10.585c-0.382,0.06-0.762,0.094-1.139,0.106
			C654.672,802.895,650.807,806.353,646.134,806.353z M563.34,787.813h82.003c-4.264-18.862-21.418-32.761-41.004-32.761
			C584.347,755.053,567.571,769.082,563.34,787.813z"/>
		<path d="M772.069,745.46c-25.534,0-46.306-20.771-46.306-46.305c0-25.532,20.771-46.304,46.306-46.304
			c25.531,0,46.304,20.771,46.304,46.304C818.373,724.688,797.601,745.46,772.069,745.46z M772.069,671.391
			c-15.312,0-27.767,12.455-27.767,27.765s12.455,27.766,27.767,27.766c15.31,0,27.764-12.456,27.764-27.766
			S787.379,671.391,772.069,671.391z"/>
		<path d="M823.978,806.353h-88.403c-5.118,0-9.27-4.149-9.27-9.27c0-0.849,0.114-1.673,0.33-2.453
			c-1.811,0.899-3.926,1.217-6.059,0.763c-5.008-1.068-8.199-5.993-7.131-10.999c5.918-27.744,30.83-47.881,59.233-47.881
			c33.398,0,60.569,27.172,60.569,60.57C833.248,802.203,829.098,806.353,823.978,806.353z M772.679,755.053
			c-19.711,0-36.997,13.966-41.102,33.208c-0.038,0.176-0.08,0.348-0.127,0.52c1.242-0.619,2.644-0.967,4.124-0.967h78.104
			C809.447,769.082,792.671,755.053,772.679,755.053z"/>
	</g>
	<g>
		<path d="M1163.766,593.556c-60.314,0-109.383-49.07-109.383-109.384c0-60.313,49.068-109.383,109.383-109.383
			c60.313,0,109.384,49.07,109.384,109.383C1273.149,544.485,1224.079,593.556,1163.766,593.556z M1163.766,393.328
			c-50.091,0-90.844,40.752-90.844,90.844c0,50.092,40.753,90.844,90.844,90.844c50.092,0,90.844-40.752,90.844-90.844
			C1254.609,434.081,1213.857,393.328,1163.766,393.328z"/>
		<path d="M1163.766,588.921c-31.361,0-55.928-46.011-55.928-104.749s24.566-104.749,55.928-104.749
			c31.362,0,55.927,46.01,55.927,104.749S1195.128,588.921,1163.766,588.921z M1163.766,388.693
			c-25.291,0-46.658,43.724-46.658,95.479s21.367,95.479,46.658,95.479s46.657-43.724,46.657-95.479
			S1189.057,388.693,1163.766,388.693z"/>
		<path d="M1163.766,588.921c-2.56,0-4.635-2.075-4.635-4.636V384.059c0-2.56,2.075-4.635,4.635-4.635
			c2.561,0,4.635,2.075,4.635,4.635v200.227C1168.4,586.846,1166.326,588.921,1163.766,588.921z"/>
		<path d="M1163.766,538.246c-58.738,0-104.748-23.752-104.748-54.074s46.01-54.074,104.748-54.074
			c58.736,0,104.749,23.752,104.749,54.074S1222.502,538.246,1163.766,538.246z M1163.766,439.368
			c-51.755,0-95.479,20.518-95.479,44.804s43.724,44.805,95.479,44.805c51.756,0,95.479-20.519,95.479-44.805
			S1215.521,439.368,1163.766,439.368z"/>
		<path d="M1263.88,488.807h-200.228c-2.56,0-4.635-2.075-4.635-4.635s2.075-4.635,4.635-4.635h200.228
			c2.56,0,4.635,2.075,4.635,4.635S1266.439,488.807,1263.88,488.807z"/>
	</g>
	<g>
		<path d="M1025.641,816.336h-45.09c-5.121,0-9.271-4.149-9.271-9.27v-33.033c0-5.119,4.149-9.27,9.271-9.27h45.09
			c5.118,0,9.27,4.15,9.27,9.27v33.033C1034.91,812.187,1030.759,816.336,1025.641,816.336z M989.82,797.797h26.551v-14.493H989.82
			V797.797z"/>
		<path d="M1054.477,827.871H946.47c-5.118,0-9.271-4.15-9.271-9.271v-11.534c0-5.12,4.152-9.27,9.271-9.27h108.007
			c5.118,0,9.27,4.149,9.27,9.27v11.534C1063.746,823.721,1059.595,827.871,1054.477,827.871z"/>
		<path d="M1164.934,847.531h-77.426c-5.118,0-9.27-4.149-9.27-9.27V701.418c0-5.12,4.151-9.27,9.27-9.27h77.426
			c5.118,0,9.27,4.149,9.27,9.27v136.844C1174.203,843.382,1170.052,847.531,1164.934,847.531z M1096.777,828.991h58.887V710.688
			h-58.887V828.991z"/>
		<path d="M1164.934,823.236h-77.426c-2.561,0-4.635-2.075-4.635-4.636V714.789c0-2.561,2.074-4.636,4.635-4.636h77.426
			c2.561,0,4.635,2.075,4.635,4.636v103.812C1169.568,821.161,1167.494,823.236,1164.934,823.236z M1092.143,813.966h68.156v-94.542
			h-68.156V813.966z"/>
		<path d="M1071.749,764.764H904.358V641.742h197.474v43.917h18.54v-53.187c0-5.12-4.151-9.271-9.271-9.271H895.089
			c-5.12,0-9.27,4.15-9.27,9.271v141.561c0,5.121,4.149,9.271,9.27,9.271h176.66V764.764z"/>
		<circle cx="1127.814" cy="826.663" r="3.857"/>
	</g>
</g>
</svg>
