<?xml version="1.0" encoding="utf-8"?>
<!-- Generator: Adobe Illustrator 16.0.0, SVG Export Plug-In . SVG Version: 6.00 Build 0)  -->
<!DOCTYPE svg PUBLIC "-//W3C//DTD SVG 1.1//EN" "http://www.w3.org/Graphics/SVG/1.1/DTD/svg11.dtd">
<svg version="1.1" id="Layer_1" xmlns="http://www.w3.org/2000/svg" xmlns:xlink="http://www.w3.org/1999/xlink" x="0px" y="0px"
	 width="283.363px" height="246.362px" viewBox="0 0 283.363 246.362" enable-background="new 0 0 283.363 246.362"
	 xml:space="preserve">
<g>
	<path d="M279.669,0l-66.724,23.687l18.12,5.917l-93.759,83.73l-11.618-43.062c-0.934-3.462-3.603-6.188-7.044-7.196
		c-3.437-1.007-7.159-0.152-9.815,2.258L3.374,161.099c-4.209,3.821-4.522,10.332-0.701,14.54c2.031,2.237,4.823,3.375,7.624,3.375
		c2.468,0,4.946-0.884,6.916-2.675l92.986-84.439l11.576,42.91c0.931,3.447,3.582,6.167,7.003,7.187
		c3.422,1.014,7.129,0.189,9.791-2.189L244.779,44.96l3.842,18.675L279.669,0z"/>
	<path d="M215.273,80.008v145.766h-34.44V110.767l-20.588,18.384v96.623h-34.441V147.8c-5.059-1.902-8.872-6.028-10.293-11.299
		l-8.812-32.66l-1.483,1.348v120.585H70.774v-89.307l-20.587,18.695v80.905c0,5.686,4.609,10.295,10.294,10.295h165.087
		c5.685,0,10.292-4.609,10.292-10.295V61.624L215.273,80.008z"/>
	<path d="M273.068,246.362H12.98c-5.685,0-10.294-4.609-10.294-10.295c0-5.685,4.609-10.294,10.294-10.294h260.088
		c5.685,0,10.295,4.609,10.295,10.294C283.363,241.753,278.753,246.362,273.068,246.362z"/>
</g>
</svg>
