<?xml version="1.0" encoding="utf-8"?>
<!-- Generator: Adobe Illustrator 16.0.0, SVG Export Plug-In . SVG Version: 6.00 Build 0)  -->
<!DOCTYPE svg PUBLIC "-//W3C//DTD SVG 1.1//EN" "http://www.w3.org/Graphics/SVG/1.1/DTD/svg11.dtd">
<svg version="1.1" id="Layer_1" xmlns="http://www.w3.org/2000/svg" xmlns:xlink="http://www.w3.org/1999/xlink" x="0px" y="0px"
	 width="288.384px" height="224.329px" viewBox="0 0 288.384 224.329" enable-background="new 0 0 288.384 224.329"
	 xml:space="preserve">
<g>
	<path d="M139.821,193.134h-45.09c-5.121,0-9.271-4.15-9.271-9.27v-33.033c0-5.119,4.149-9.27,9.271-9.27h45.09
		c5.118,0,9.27,4.15,9.27,9.27v33.033C149.091,188.983,144.939,193.134,139.821,193.134z M104.001,174.595h26.551v-14.494h-26.551
		V174.595z"/>
	<path d="M168.657,204.669H60.65c-5.118,0-9.271-4.15-9.271-9.271v-11.533c0-5.121,4.152-9.27,9.271-9.27h108.007
		c5.118,0,9.27,4.148,9.27,9.27v11.533C177.927,200.519,173.775,204.669,168.657,204.669z"/>
	<path d="M279.114,224.329h-77.426c-5.118,0-9.27-4.15-9.27-9.27V78.216c0-5.12,4.151-9.27,9.27-9.27h77.426
		c5.118,0,9.27,4.149,9.27,9.27V215.06C288.384,220.179,284.232,224.329,279.114,224.329z M210.958,205.788h58.887V87.485h-58.887
		V205.788z"/>
	<path d="M279.114,200.034h-77.426c-2.561,0-4.635-2.076-4.635-4.637V91.587c0-2.561,2.074-4.636,4.635-4.636h77.426
		c2.561,0,4.635,2.075,4.635,4.636v103.811C283.749,197.958,281.675,200.034,279.114,200.034z M206.323,190.763h68.156V96.222
		h-68.156V190.763z"/>
	<path d="M185.93,141.562H18.539V18.54h197.474v43.917h18.54V9.271c0-5.12-4.151-9.271-9.271-9.271H9.27C4.149,0,0,4.15,0,9.271
		v141.561c0,5.121,4.149,9.27,9.27,9.27h176.66V141.562z"/>
	<circle cx="241.995" cy="203.46" r="3.857"/>
</g>
</svg>
